<svg xmlns="http://www.w3.org/2000/svg" xml:space="preserve" width="666.667" height="666.667"><defs><clipPath clipPathUnits="userSpaceOnUse" id="a"><path d="M0 500h500V0H0Z"/></clipPath><clipPath clipPathUnits="userSpaceOnUse" id="b"><path d="M500 0H0v500h500z"/></clipPath><clipPath clipPathUnits="userSpaceOnUse" id="c"><path d="M450 550h500V50H450Z"/></clipPath><clipPath clipPathUnits="userSpaceOnUse" id="d"><path d="M450 50h500v-500H450Z"/></clipPath><clipPath clipPathUnits="userSpaceOnUse" id="e"><path d="M-50 550h500V50H-50Z"/></clipPath><clipPath clipPathUnits="userSpaceOnUse" id="f"><path d="M-50 50h500v-500H-50Z"/></clipPath></defs><g clip-path="url(#a)" transform="matrix(1.33333 0 0 -1.33333 0 666.667)"><path d="M500 0H0v500h500z" style="fill:#000;fill-opacity:1;fill-rule:nonzero;stroke:none"/><g clip-path="url(#b)"><g clip-path="url(#c)"><path d="M481.777 497.536c0 1.986-1.324 3.075-4.164 3.075H461.95c-2.839 0-4.164-1.089-4.164-3.075v-17.32c0-1.987 1.325-3.075 4.164-3.075h15.663c2.84 0 4.164 1.088 4.164 3.075zm-19.827-25.317c-7.57 0-10.457 3.265-10.457 8.044v17.225c0 4.78 2.887 8.044 10.457 8.044h15.663c7.572 0 10.458-3.264 10.458-8.044v-17.225c0-4.779-2.886-8.044-10.458-8.044z" style="fill:#31a101;fill-opacity:1;fill-rule:nonzero;stroke:none"/><path d="M523.573 497.536c0 1.986-1.325 3.075-4.165 3.075h-15.663c-2.839 0-4.164-1.089-4.164-3.075v-17.32c0-1.987 1.325-3.075 4.164-3.075h15.663c2.84 0 4.165 1.088 4.165 3.075zm-19.828-25.317c-7.57 0-10.457 3.265-10.457 8.044v17.225c0 4.78 2.887 8.044 10.457 8.044h15.663c7.571 0 10.458-3.264 10.458-8.044v-17.225c0-4.779-2.887-8.044-10.458-8.044zm-45.91-41.937v28.628l-2.32-2.65h-6.624l6.482 7.335h8.755v-33.313z" style="fill:#225e06;fill-opacity:1;fill-rule:nonzero;stroke:none"/><path d="M476.425 430.282v28.628l-2.32-2.65h-6.625l6.484 7.335h8.755v-33.313z" style="fill:#31a101;fill-opacity:1;fill-rule:nonzero;stroke:none"/><path d="M518.96 455.599c0 1.986-1.325 3.075-4.164 3.075h-15.663c-2.84 0-4.164-1.089-4.164-3.075v-17.32c0-1.987 1.324-3.075 4.164-3.075h15.663c2.839 0 4.164 1.088 4.164 3.075zm-19.827-25.317c-7.571 0-10.458 3.265-10.458 8.044v17.225c0 4.779 2.887 8.044 10.458 8.044h15.663c7.571 0 10.457-3.265 10.457-8.044v-17.225c0-4.779-2.886-8.044-10.457-8.044z" style="fill:#31860f;fill-opacity:1;fill-rule:nonzero;stroke:none"/><path d="M481.777 413.661c0 1.987-1.324 3.076-4.164 3.076H461.95c-2.839 0-4.164-1.089-4.164-3.076v-17.319c0-1.987 1.325-3.076 4.164-3.076h15.663c2.84 0 4.164 1.089 4.164 3.076zm-19.827-25.316c-7.57 0-10.457 3.265-10.457 8.044v17.225c0 4.779 2.887 8.044 10.457 8.044h15.663c7.572 0 10.458-3.265 10.458-8.044v-17.225c0-4.779-2.886-8.044-10.458-8.044zm39.304 0v28.628l-2.318-2.65h-6.625l6.484 7.335h8.754v-33.313z" style="fill:#31a101;fill-opacity:1;fill-rule:nonzero;stroke:none"/><path d="M457.835 346.408v28.628l-2.32-2.65h-6.624l6.482 7.335h8.755v-33.313z" style="fill:#225e06;fill-opacity:1;fill-rule:nonzero;stroke:none"/><path d="M499.991 371.724c0 1.987-1.325 3.076-4.164 3.076h-15.663c-2.84 0-4.164-1.089-4.164-3.076v-17.319c0-1.988 1.324-3.076 4.164-3.076h15.663c2.839 0 4.164 1.088 4.164 3.076zm-19.827-25.316c-7.571 0-10.458 3.265-10.458 8.044v17.225c0 4.779 2.887 8.044 10.458 8.044h15.663c7.57 0 10.457-3.265 10.457-8.044v-17.225c0-4.779-2.887-8.044-10.457-8.044z" style="fill:#31a101;fill-opacity:1;fill-rule:nonzero;stroke:none"/><path d="M481.777 329.787c0 1.987-1.324 3.075-4.164 3.075H461.95c-2.839 0-4.164-1.088-4.164-3.075v-17.319c0-1.988 1.325-3.076 4.164-3.076h15.663c2.84 0 4.164 1.088 4.164 3.076zm-19.827-25.316c-7.57 0-10.457 3.264-10.457 8.044v17.225c0 4.779 2.887 8.044 10.457 8.044h15.663c7.572 0 10.458-3.265 10.458-8.044v-17.225c0-4.78-2.886-8.044-10.458-8.044z" style="fill:#225e06;fill-opacity:1;fill-rule:nonzero;stroke:none"/><path d="M522.596 329.787c0 1.987-1.325 3.075-4.164 3.075h-15.663c-2.839 0-4.165-1.088-4.165-3.075v-17.319c0-1.988 1.326-3.076 4.165-3.076h15.663c2.839 0 4.164 1.088 4.164 3.076zm-19.827-25.316c-7.572 0-10.457 3.264-10.457 8.044v17.225c0 4.779 2.885 8.044 10.457 8.044h15.663c7.571 0 10.457-3.265 10.457-8.044v-17.225c0-4.78-2.886-8.044-10.457-8.044z" style="fill:#31860f;fill-opacity:1;fill-rule:nonzero;stroke:none"/><path d="M457.835 262.534v28.629l-2.32-2.65h-6.624l6.482 7.334h8.755v-33.313z" style="fill:#225e06;fill-opacity:1;fill-rule:nonzero;stroke:none"/><path d="M500.368 287.85c0 1.987-1.325 3.075-4.164 3.075h-15.663c-2.839 0-4.164-1.088-4.164-3.075v-17.32c0-1.987 1.325-3.075 4.164-3.075h15.663c2.839 0 4.164 1.088 4.164 3.075zm-19.827-25.316c-7.571 0-10.457 3.265-10.457 8.044v17.225c0 4.78 2.886 8.044 10.457 8.044h15.663c7.571 0 10.457-3.264 10.457-8.044v-17.225c0-4.779-2.886-8.044-10.457-8.044zm1.214-17.884c-.006 1.987-1.333 3.072-4.173 3.064l-15.663-.043c-2.839-.008-4.161-1.101-4.155-3.087l.048-17.319c.004-1.988 1.333-3.073 4.171-3.065l15.663.043c2.84.008 4.162 1.101 4.157 3.087zm-19.758-25.371c-7.57-.021-10.466 3.238-10.479 8.015l-.047 17.226c-.014 4.779 2.864 8.051 10.434 8.072l15.663.043c7.572.021 10.467-3.235 10.48-8.015l.048-17.225c.012-4.778-2.865-8.052-10.436-8.073z" style="fill:#31860f;fill-opacity:1;fill-rule:nonzero;stroke:none"/><path d="m500.125 219.384-.079 28.629-2.312-2.657-6.624-.017 6.463 7.351 8.754.024.092-33.313zm-42.29-42.042v28.627l-2.32-2.65h-6.624l6.482 7.336h8.755v-33.313z" style="fill:#225e06;fill-opacity:1;fill-rule:nonzero;stroke:none"/><path d="M500.368 202.658c0 1.988-1.325 3.075-4.164 3.075h-15.663c-2.839 0-4.164-1.087-4.164-3.075v-17.319c0-1.987 1.325-3.075 4.164-3.075h15.663c2.839 0 4.164 1.088 4.164 3.075zm-19.827-25.316c-7.571 0-10.457 3.263-10.457 8.044v17.225c0 4.778 2.886 8.044 10.457 8.044h15.663c7.571 0 10.457-3.266 10.457-8.044v-17.225c0-4.781-2.886-8.044-10.457-8.044z" style="fill:#31860f;fill-opacity:1;fill-rule:nonzero;stroke:none"/><path d="M481.777 160.721c0 1.987-1.324 3.076-4.164 3.076H461.95c-2.839 0-4.164-1.089-4.164-3.076v-17.32c0-1.986 1.325-3.075 4.164-3.075h15.663c2.84 0 4.164 1.089 4.164 3.075zm-19.827-25.316c-7.57 0-10.457 3.266-10.457 8.043v17.226c0 4.778 2.887 8.044 10.457 8.044h15.663c7.572 0 10.458-3.266 10.458-8.044v-17.226c0-4.777-2.886-8.043-10.458-8.043zm38.128 0v28.627l-2.318-2.648h-6.625l6.483 7.334h8.754v-33.313zm-40.235-41.937v28.629l-2.32-2.65h-6.625l6.484 7.333h8.755V93.468Z" style="fill:#225e06;fill-opacity:1;fill-rule:nonzero;stroke:none"/><path d="M500.698 118.784c0 1.987-1.325 3.075-4.164 3.075h-15.663c-2.84 0-4.164-1.088-4.164-3.075v-17.319c0-1.987 1.324-3.076 4.164-3.076h15.663c2.839 0 4.164 1.089 4.164 3.076zm-19.827-25.316c-7.571 0-10.458 3.265-10.458 8.044v17.224c0 4.781 2.887 8.044 10.458 8.044h15.663c7.57 0 10.457-3.263 10.457-8.044v-17.224c0-4.779-2.887-8.044-10.457-8.044zm.906-16.621c0 1.987-1.324 3.075-4.164 3.075H461.95c-2.839 0-4.164-1.088-4.164-3.075v-17.32c0-1.987 1.325-3.075 4.164-3.075h15.663c2.84 0 4.164 1.088 4.164 3.075zM461.95 51.53c-7.57 0-10.457 3.264-10.457 8.044V76.8c0 4.778 2.887 8.044 10.457 8.044h15.663c7.572 0 10.458-3.266 10.458-8.044V59.574c0-4.78-2.886-8.044-10.458-8.044z" style="fill:#31860f;fill-opacity:1;fill-rule:nonzero;stroke:none"/><path d="M500.078 51.53v28.627l-2.318-2.649h-6.625l6.483 7.336h8.754V51.53Zm-55.297 194.394c-.006 1.987-1.335 3.072-4.175 3.064l-15.662-.043c-2.838-.007-4.161-1.1-4.155-3.087l.048-17.319c.005-1.987 1.334-3.072 4.172-3.064l15.662.043c2.84.007 4.163 1.1 4.157 3.086zm-19.759-25.37c-7.571-.022-10.464 3.236-10.478 8.014l-.047 17.226c-.014 4.78 2.862 8.052 10.434 8.072l15.662.043c7.571.021 10.468-3.235 10.48-8.014l.048-17.226c.013-4.778-2.865-8.052-10.436-8.072z" style="fill:#225e06;fill-opacity:1;fill-rule:nonzero;stroke:none"/><path d="M444.806 202.658c0 1.988-1.327 3.075-4.166 3.075h-15.662c-2.838 0-4.165-1.087-4.165-3.075v-17.319c0-1.987 1.327-3.075 4.165-3.075h15.662c2.839 0 4.166 1.088 4.166 3.075zm-19.828-25.316c-7.572 0-10.457 3.263-10.457 8.044v17.225c0 4.778 2.885 8.044 10.457 8.044h15.662c7.571 0 10.458-3.266 10.458-8.044v-17.225c0-4.781-2.887-8.044-10.458-8.044z" style="fill:#31860f;fill-opacity:1;fill-rule:nonzero;stroke:none"/><path d="M444.806 76.847c0 1.987-1.327 3.075-4.166 3.075h-15.662c-2.838 0-4.165-1.088-4.165-3.075v-17.32c0-1.987 1.327-3.075 4.165-3.075h15.662c2.839 0 4.166 1.088 4.166 3.075zM424.978 51.53c-7.572 0-10.457 3.264-10.457 8.044V76.8c0 4.778 2.885 8.044 10.457 8.044h15.662c7.571 0 10.458-3.266 10.458-8.044V59.574c0-4.78-2.887-8.044-10.458-8.044z" style="fill:#225e06;fill-opacity:1;fill-rule:nonzero;stroke:none"/></g><g clip-path="url(#d)"><path d="M457.835 14.156v28.628l-2.32-2.649h-6.624l6.482 7.335h8.755V14.156Z" style="fill:#31a101;fill-opacity:1;fill-rule:nonzero;stroke:none"/><path d="M500.368 39.473c0 1.987-1.325 3.075-4.164 3.075h-15.663c-2.839 0-4.164-1.088-4.164-3.075v-17.32c0-1.987 1.325-3.076 4.164-3.076h15.663c2.839 0 4.164 1.089 4.164 3.076zm-19.827-25.317c-7.571 0-10.457 3.265-10.457 8.044v17.226c0 4.779 2.886 8.044 10.457 8.044h15.663c7.571 0 10.457-3.265 10.457-8.044V22.2c0-4.779-2.886-8.044-10.457-8.044z" style="fill:#31860f;fill-opacity:1;fill-rule:nonzero;stroke:none"/><path d="M481.777-2.465c0 1.987-1.324 3.076-4.164 3.076H461.95c-2.839 0-4.164-1.089-4.164-3.076v-17.319c0-1.987 1.325-3.075 4.164-3.075h15.663c2.84 0 4.164 1.088 4.164 3.075zM461.95-27.78c-7.57 0-10.457 3.264-10.457 8.043v17.225c0 4.78 2.887 8.044 10.457 8.044h15.663c7.572 0 10.458-3.264 10.458-8.044v-17.225c0-4.779-2.886-8.043-10.458-8.043z" style="fill:#31a101;fill-opacity:1;fill-rule:nonzero;stroke:none"/><path d="M523.573-2.465c0 1.987-1.325 3.076-4.165 3.076h-15.663c-2.839 0-4.164-1.089-4.164-3.076v-17.319c0-1.987 1.325-3.075 4.164-3.075h15.663c2.84 0 4.165 1.088 4.165 3.075zM503.745-27.78c-7.57 0-10.457 3.264-10.457 8.043v17.225c0 4.78 2.887 8.044 10.457 8.044h15.663c7.571 0 10.458-3.264 10.458-8.044v-17.225c0-4.779-2.887-8.043-10.458-8.043z" style="fill:#225e06;fill-opacity:1;fill-rule:nonzero;stroke:none"/></g><g clip-path="url(#e)"><path d="M457.835 430.282v28.628l-2.32-2.65h-6.624l6.482 7.335h8.755v-33.313zm0-83.874v28.628l-2.32-2.65h-6.624l6.482 7.335h8.755v-33.313zm0-83.874v28.629l-2.32-2.65h-6.624l6.482 7.334h8.755v-33.313zm0-85.192v28.627l-2.32-2.65h-6.624l6.482 7.336h8.755v-33.313zM23.573 497.536c0 1.986-1.325 3.075-4.164 3.075H3.746c-2.839 0-4.164-1.089-4.164-3.075v-17.32c0-1.987 1.325-3.075 4.164-3.075h15.663c2.839 0 4.164 1.088 4.164 3.075zM3.746 472.219c-7.572 0-10.458 3.265-10.458 8.044v17.225c0 4.78 2.886 8.044 10.458 8.044h15.663c7.571 0 10.457-3.264 10.457-8.044v-17.225c0-4.779-2.886-8.044-10.457-8.044z" style="fill:#225e06;fill-opacity:1;fill-rule:nonzero;stroke:none"/><path d="M44.026 472.219v28.628l-2.318-2.65h-6.625l6.484 7.335h8.754v-33.313z" style="fill:#31a101;fill-opacity:1;fill-rule:nonzero;stroke:none"/><path d="M85.822 497.536c0 1.986-1.324 3.075-4.164 3.075H65.995c-2.839 0-4.164-1.089-4.164-3.075v-17.32c0-1.987 1.325-3.075 4.164-3.075h15.663c2.84 0 4.164 1.088 4.164 3.075zm-19.827-25.317c-7.571 0-10.457 3.265-10.457 8.044v17.225c0 4.78 2.886 8.044 10.457 8.044h15.663c7.571 0 10.458-3.264 10.458-8.044v-17.225c0-4.779-2.887-8.044-10.458-8.044z" style="fill:#31860f;fill-opacity:1;fill-rule:nonzero;stroke:none"/><path d="M106.276 472.219v28.628l-2.318-2.65h-6.625l6.483 7.335h8.754v-33.313z" style="fill:#225e06;fill-opacity:1;fill-rule:nonzero;stroke:none"/><path d="M148.072 497.536c0 1.986-1.325 3.075-4.164 3.075h-15.663c-2.839 0-4.164-1.089-4.164-3.075v-17.32c0-1.987 1.325-3.075 4.164-3.075h15.663c2.839 0 4.164 1.088 4.164 3.075zm-19.827-25.317c-7.571 0-10.457 3.265-10.457 8.044v17.225c0 4.78 2.886 8.044 10.457 8.044h15.663c7.571 0 10.457-3.264 10.457-8.044v-17.225c0-4.779-2.886-8.044-10.457-8.044z" style="fill:#31a101;fill-opacity:1;fill-rule:nonzero;stroke:none"/><path d="M168.527 472.219v28.628l-2.319-2.65h-6.625l6.482 7.335h8.755v-33.313z" style="fill:#225e06;fill-opacity:1;fill-rule:nonzero;stroke:none"/><path d="M188.981 472.219v28.628l-2.319-2.65h-6.625l6.483 7.335h8.754v-33.313z" style="fill:#31860f;fill-opacity:1;fill-rule:nonzero;stroke:none"/><path d="M230.775 497.536c0 1.986-1.324 3.075-4.162 3.075h-15.664c-2.838 0-4.164-1.089-4.164-3.075v-17.32c0-1.987 1.326-3.075 4.164-3.075h15.664c2.838 0 4.162 1.088 4.162 3.075zm-19.826-25.317c-7.571 0-10.457 3.265-10.457 8.044v17.225c0 4.78 2.886 8.044 10.457 8.044h15.664c7.571 0 10.457-3.264 10.457-8.044v-17.225c0-4.779-2.886-8.044-10.457-8.044z" style="fill:#225e06;fill-opacity:1;fill-rule:nonzero;stroke:none"/><path d="M272.571 497.536c0 1.986-1.326 3.075-4.166 3.075h-15.662c-2.838 0-4.164-1.089-4.164-3.075v-17.32c0-1.987 1.326-3.075 4.164-3.075h15.662c2.84 0 4.166 1.088 4.166 3.075zm-19.828-25.317c-7.571 0-10.456 3.265-10.456 8.044v17.225c0 4.78 2.885 8.044 10.456 8.044h15.662c7.572 0 10.458-3.264 10.458-8.044v-17.225c0-4.779-2.886-8.044-10.458-8.044zm61.622 25.317c0 1.986-1.326 3.075-4.166 3.075h-15.662c-2.838 0-4.164-1.089-4.164-3.075v-17.32c0-1.987 1.326-3.075 4.164-3.075h15.662c2.84 0 4.166 1.088 4.166 3.075zm-19.828-25.317c-7.571 0-10.456 3.265-10.456 8.044v17.225c0 4.78 2.885 8.044 10.456 8.044h15.662c7.572 0 10.459-3.264 10.459-8.044v-17.225c0-4.779-2.887-8.044-10.459-8.044zm40.28 0v28.628l-2.318-2.65h-6.624l6.482 7.335h8.754v-33.313zm41.796 25.317c0 1.986-1.324 3.075-4.162 3.075h-15.664c-2.839 0-4.164-1.089-4.164-3.075v-17.32c0-1.987 1.325-3.075 4.164-3.075h15.664c2.838 0 4.162 1.088 4.162 3.075zm-19.826-25.317c-7.571 0-10.458 3.265-10.458 8.044v17.225c0 4.78 2.887 8.044 10.458 8.044h15.664c7.571 0 10.456-3.264 10.456-8.044v-17.225c0-4.779-2.885-8.044-10.456-8.044z" style="fill:#31860f;fill-opacity:1;fill-rule:nonzero;stroke:none"/><path d="M397.066 472.219v28.628l-2.318-2.65h-6.623l6.482 7.335h8.754v-33.313z" style="fill:#31a101;fill-opacity:1;fill-rule:nonzero;stroke:none"/><path d="M417.521 472.219v28.628l-2.319-2.65h-6.624l6.483 7.335h8.753v-33.313zm22.461 0v28.628l-2.318-2.65h-6.624l6.482 7.335h8.754v-33.313z" style="fill:#225e06;fill-opacity:1;fill-rule:nonzero;stroke:none"/><path d="M18.959 455.599c0 1.986-1.324 3.075-4.164 3.075H-.868c-2.839 0-4.164-1.089-4.164-3.075v-17.32c0-1.987 1.325-3.075 4.164-3.075h15.663c2.84 0 4.164 1.088 4.164 3.075zM-.868 430.282c-7.57 0-10.457 3.265-10.457 8.044v17.225c0 4.779 2.887 8.044 10.457 8.044h15.663c7.572 0 10.458-3.265 10.458-8.044v-17.225c0-4.779-2.886-8.044-10.458-8.044z" style="fill:#31860f;fill-opacity:1;fill-rule:nonzero;stroke:none"/><path d="M37.261 430.282v28.628l-2.32-2.65h-6.624l6.482 7.335h8.755v-33.313zm42.533 25.317c0 1.986-1.324 3.075-4.164 3.075H59.967c-2.839 0-4.164-1.089-4.164-3.075v-17.32c0-1.987 1.325-3.075 4.164-3.075H75.63c2.84 0 4.164 1.088 4.164 3.075zm-19.827-25.317c-7.571 0-10.457 3.265-10.457 8.044v17.225c0 4.779 2.886 8.044 10.457 8.044H75.63c7.572 0 10.458-3.265 10.458-8.044v-17.225c0-4.779-2.886-8.044-10.458-8.044z" style="fill:#225e06;fill-opacity:1;fill-rule:nonzero;stroke:none"/><path d="M98.095 430.282v28.628l-2.319-2.65h-6.625l6.484 7.335h8.754v-33.313z" style="fill:#31a101;fill-opacity:1;fill-rule:nonzero;stroke:none"/><path d="M140.629 455.599c0 1.986-1.324 3.075-4.164 3.075h-15.663c-2.839 0-4.164-1.089-4.164-3.075v-17.32c0-1.987 1.325-3.075 4.164-3.075h15.663c2.84 0 4.164 1.088 4.164 3.075zm-19.827-25.317c-7.571 0-10.457 3.265-10.457 8.044v17.225c0 4.779 2.886 8.044 10.457 8.044h15.663c7.572 0 10.458-3.265 10.458-8.044v-17.225c0-4.779-2.886-8.044-10.458-8.044z" style="fill:#31860f;fill-opacity:1;fill-rule:nonzero;stroke:none"/><path d="M158.931 430.282v28.628l-2.32-2.65h-6.625l6.483 7.335h8.755v-33.313zm18.59 0v28.628l-2.319-2.65h-6.625l6.483 7.335h8.754v-33.313z" style="fill:#31a101;fill-opacity:1;fill-rule:nonzero;stroke:none"/><path d="M196.111 430.282v28.628l-2.318-2.65h-6.625l6.484 7.335h8.754v-33.313z" style="fill:#225e06;fill-opacity:1;fill-rule:nonzero;stroke:none"/><path d="M238.647 455.599c0 1.986-1.326 3.075-4.166 3.075h-15.662c-2.838 0-4.164-1.089-4.164-3.075v-17.32c0-1.987 1.326-3.075 4.164-3.075h15.662c2.84 0 4.166 1.088 4.166 3.075zm-19.828-25.317c-7.571 0-10.456 3.265-10.456 8.044v17.225c0 4.779 2.885 8.044 10.456 8.044h15.662c7.571 0 10.458-3.265 10.458-8.044v-17.225c0-4.779-2.887-8.044-10.458-8.044z" style="fill:#31a101;fill-opacity:1;fill-rule:nonzero;stroke:none"/><path d="M256.945 430.282v28.628l-2.318-2.65h-6.624l6.482 7.335h8.754v-33.313z" style="fill:#225e06;fill-opacity:1;fill-rule:nonzero;stroke:none"/><path d="M299.483 455.599c0 1.986-1.326 3.075-4.166 3.075h-15.662c-2.839 0-4.164-1.089-4.164-3.075v-17.32c0-1.987 1.325-3.075 4.164-3.075h15.662c2.84 0 4.166 1.088 4.166 3.075zm-19.828-25.317c-7.571 0-10.457 3.265-10.457 8.044v17.225c0 4.779 2.886 8.044 10.457 8.044h15.662c7.571 0 10.458-3.265 10.458-8.044v-17.225c0-4.779-2.887-8.044-10.458-8.044z" style="fill:#31860f;fill-opacity:1;fill-rule:nonzero;stroke:none"/><path d="M317.781 430.282v28.628l-2.318-2.65h-6.624l6.482 7.335h8.754v-33.313zm42.534 25.317c0 1.986-1.324 3.075-4.163 3.075h-15.663c-2.839 0-4.165-1.089-4.165-3.075v-17.32c0-1.987 1.326-3.075 4.165-3.075h15.663c2.839 0 4.163 1.088 4.163 3.075zm-19.826-25.317c-7.571 0-10.459 3.265-10.459 8.044v17.225c0 4.779 2.888 8.044 10.459 8.044h15.663c7.572 0 10.457-3.265 10.457-8.044v-17.225c0-4.779-2.885-8.044-10.457-8.044z" style="fill:#225e06;fill-opacity:1;fill-rule:nonzero;stroke:none"/><path d="M378.617 430.282v28.628l-2.318-2.65h-6.624l6.482 7.335h8.754v-33.313z" style="fill:#31a101;fill-opacity:1;fill-rule:nonzero;stroke:none"/><path d="M397.208 430.282v28.628l-2.318-2.65h-6.624l6.482 7.335h8.754v-33.313zm42.533 25.317c0 1.986-1.324 3.075-4.162 3.075h-15.664c-2.838 0-4.164-1.089-4.164-3.075v-17.32c0-1.987 1.326-3.075 4.164-3.075h15.664c2.838 0 4.162 1.088 4.162 3.075zm-19.826-25.317c-7.571 0-10.458 3.265-10.458 8.044v17.225c0 4.779 2.887 8.044 10.458 8.044h15.664c7.571 0 10.456-3.265 10.456-8.044v-17.225c0-4.779-2.885-8.044-10.456-8.044z" style="fill:#225e06;fill-opacity:1;fill-rule:nonzero;stroke:none"/><path d="M1.254 388.345v28.628l-2.318-2.65h-6.625l6.483 7.335h8.754v-33.313z" style="fill:#31a101;fill-opacity:1;fill-rule:nonzero;stroke:none"/><path d="M20.731 388.345v28.628l-2.318-2.65h-6.625l6.484 7.335h8.754v-33.313zm40.819 25.316c0 1.987-1.325 3.076-4.164 3.076H41.723c-2.839 0-4.164-1.089-4.164-3.076v-17.319c0-1.987 1.325-3.076 4.164-3.076h15.663c2.839 0 4.164 1.089 4.164 3.076zm-19.827-25.316c-7.571 0-10.457 3.265-10.457 8.044v17.225c0 4.779 2.886 8.044 10.457 8.044h15.663c7.571 0 10.457-3.265 10.457-8.044v-17.225c0-4.779-2.886-8.044-10.457-8.044z" style="fill:#31860f;fill-opacity:1;fill-rule:nonzero;stroke:none"/><path d="M81.028 388.345v28.628l-2.32-2.65h-6.625l6.483 7.335h8.755v-33.313z" style="fill:#225e06;fill-opacity:1;fill-rule:nonzero;stroke:none"/><path d="M100.504 388.345v28.628l-2.318-2.65h-6.625l6.483 7.335h8.754v-33.313z" style="fill:#31860f;fill-opacity:1;fill-rule:nonzero;stroke:none"/><path d="M141.323 413.661c0 1.987-1.325 3.076-4.164 3.076h-15.663c-2.84 0-4.164-1.089-4.164-3.076v-17.319c0-1.987 1.324-3.076 4.164-3.076h15.663c2.839 0 4.164 1.089 4.164 3.076zm-19.827-25.316c-7.572 0-10.458 3.265-10.458 8.044v17.225c0 4.779 2.886 8.044 10.458 8.044h15.663c7.57 0 10.457-3.265 10.457-8.044v-17.225c0-4.779-2.887-8.044-10.457-8.044z" style="fill:#225e06;fill-opacity:1;fill-rule:nonzero;stroke:none"/><path d="M182.141 413.661c0 1.987-1.326 3.076-4.165 3.076h-15.663c-2.839 0-4.164-1.089-4.164-3.076v-17.319c0-1.987 1.325-3.076 4.164-3.076h15.663c2.839 0 4.165 1.089 4.165 3.076zm-19.828-25.316c-7.571 0-10.457 3.265-10.457 8.044v17.225c0 4.779 2.886 8.044 10.457 8.044h15.663c7.571 0 10.458-3.265 10.458-8.044v-17.225c0-4.779-2.887-8.044-10.458-8.044z" style="fill:#31860f;fill-opacity:1;fill-rule:nonzero;stroke:none"/><path d="M201.617 388.345v28.628l-2.319-2.65h-6.624l6.483 7.335h8.754v-33.313z" style="fill:#225e06;fill-opacity:1;fill-rule:nonzero;stroke:none"/><path d="M221.093 388.345v28.628l-2.318-2.65h-6.624l6.482 7.335h8.754v-33.313z" style="fill:#31860f;fill-opacity:1;fill-rule:nonzero;stroke:none"/><path d="M240.569 388.345v28.628l-2.318-2.65h-6.624l6.483 7.335h8.754v-33.313z" style="fill:#31a101;fill-opacity:1;fill-rule:nonzero;stroke:none"/><path d="M281.389 413.661c0 1.987-1.325 3.076-4.162 3.076h-15.664c-2.839 0-4.165-1.089-4.165-3.076v-17.319c0-1.987 1.326-3.076 4.165-3.076h15.664c2.837 0 4.162 1.089 4.162 3.076zm-19.826-25.316c-7.572 0-10.459 3.265-10.459 8.044v17.225c0 4.779 2.887 8.044 10.459 8.044h15.664c7.57 0 10.456-3.265 10.456-8.044v-17.225c0-4.779-2.886-8.044-10.456-8.044z" style="fill:#31860f;fill-opacity:1;fill-rule:nonzero;stroke:none"/><path d="M300.864 388.345v28.628l-2.318-2.65h-6.623l6.482 7.335h8.754v-33.313z" style="fill:#225e06;fill-opacity:1;fill-rule:nonzero;stroke:none"/><path d="M341.684 413.661c0 1.987-1.325 3.076-4.163 3.076h-15.664c-2.838 0-4.164-1.089-4.164-3.076v-17.319c0-1.987 1.326-3.076 4.164-3.076h15.664c2.838 0 4.163 1.089 4.163 3.076zm-19.827-25.316c-7.571 0-10.459 3.265-10.459 8.044v17.225c0 4.779 2.888 8.044 10.459 8.044h15.664c7.572 0 10.457-3.265 10.457-8.044v-17.225c0-4.779-2.885-8.044-10.457-8.044z" style="fill:#31a101;fill-opacity:1;fill-rule:nonzero;stroke:none"/><path d="M361.16 388.345v28.628l-2.318-2.65h-6.624l6.482 7.335h8.754v-33.313z" style="fill:#225e06;fill-opacity:1;fill-rule:nonzero;stroke:none"/><path d="M401.979 413.661c0 1.987-1.325 3.076-4.163 3.076h-15.664c-2.838 0-4.164-1.089-4.164-3.076v-17.319c0-1.987 1.326-3.076 4.164-3.076h15.664c2.838 0 4.163 1.089 4.163 3.076zm-19.827-25.316c-7.571 0-10.458 3.265-10.458 8.044v17.225c0 4.779 2.887 8.044 10.458 8.044h15.664c7.572 0 10.456-3.265 10.456-8.044v-17.225c0-4.779-2.884-8.044-10.456-8.044z" style="fill:#31a101;fill-opacity:1;fill-rule:nonzero;stroke:none"/><path d="M442.797 413.661c0 1.987-1.325 3.076-4.166 3.076h-15.662c-2.838 0-4.164-1.089-4.164-3.076v-17.319c0-1.987 1.326-3.076 4.164-3.076h15.662c2.841 0 4.166 1.089 4.166 3.076zm-19.828-25.316c-7.572 0-10.456 3.265-10.456 8.044v17.225c0 4.779 2.884 8.044 10.456 8.044h15.662c7.571 0 10.459-3.265 10.459-8.044v-17.225c0-4.779-2.888-8.044-10.459-8.044z" style="fill:#225e06;fill-opacity:1;fill-rule:nonzero;stroke:none"/><path d="M-.009 371.724c0 1.987-1.325 3.076-4.164 3.076h-15.663c-2.839 0-4.164-1.089-4.164-3.076v-17.319c0-1.988 1.325-3.076 4.164-3.076h15.663c2.839 0 4.164 1.088 4.164 3.076zm-19.827-25.316c-7.571 0-10.458 3.265-10.458 8.044v17.225c0 4.779 2.887 8.044 10.458 8.044h15.663c7.571 0 10.457-3.265 10.457-8.044v-17.225c0-4.779-2.886-8.044-10.457-8.044zm40.642 0v28.628l-2.319-2.65h-6.624l6.483 7.335H27.1v-33.313zm42.157 25.316c0 1.987-1.325 3.076-4.164 3.076H43.136c-2.839 0-4.164-1.089-4.164-3.076v-17.319c0-1.988 1.325-3.076 4.164-3.076h15.663c2.839 0 4.164 1.088 4.164 3.076zm-19.827-25.316c-7.571 0-10.457 3.265-10.457 8.044v17.225c0 4.779 2.886 8.044 10.457 8.044h15.663c7.571 0 10.457-3.265 10.457-8.044v-17.225c0-4.779-2.886-8.044-10.457-8.044z" style="fill:#31a101;fill-opacity:1;fill-rule:nonzero;stroke:none"/><path d="M83.779 346.408v28.628l-2.32-2.65h-6.624l6.482 7.335h8.755v-33.313z" style="fill:#31860f;fill-opacity:1;fill-rule:nonzero;stroke:none"/><path d="M125.936 371.724c0 1.987-1.326 3.076-4.165 3.076h-15.663c-2.839 0-4.164-1.089-4.164-3.076v-17.319c0-1.988 1.325-3.076 4.164-3.076h15.663c2.839 0 4.165 1.088 4.165 3.076zm-19.828-25.316c-7.571 0-10.457 3.265-10.457 8.044v17.225c0 4.779 2.886 8.044 10.457 8.044h15.663c7.571 0 10.458-3.265 10.458-8.044v-17.225c0-4.779-2.887-8.044-10.458-8.044z" style="fill:#225e06;fill-opacity:1;fill-rule:nonzero;stroke:none"/><path d="M146.75 346.408v28.628l-2.318-2.65h-6.625l6.484 7.335h8.753v-33.313zm42.158 25.316c0 1.987-1.325 3.076-4.164 3.076h-15.663c-2.84 0-4.164-1.089-4.164-3.076v-17.319c0-1.988 1.324-3.076 4.164-3.076h15.663c2.839 0 4.164 1.088 4.164 3.076zm-19.827-25.316c-7.572 0-10.458 3.265-10.458 8.044v17.225c0 4.779 2.886 8.044 10.458 8.044h15.663c7.57 0 10.457-3.265 10.457-8.044v-17.225c0-4.779-2.887-8.044-10.457-8.044zm61.982 25.316c0 1.987-1.324 3.076-4.162 3.076h-15.664c-2.838 0-4.164-1.089-4.164-3.076v-17.319c0-1.988 1.326-3.076 4.164-3.076h15.664c2.838 0 4.162 1.088 4.162 3.076zm-19.826-25.316c-7.571 0-10.458 3.265-10.458 8.044v17.225c0 4.779 2.887 8.044 10.458 8.044h15.664c7.571 0 10.456-3.265 10.456-8.044v-17.225c0-4.779-2.885-8.044-10.456-8.044zm61.984 25.316c0 1.987-1.326 3.076-4.166 3.076h-15.662c-2.839 0-4.165-1.089-4.165-3.076v-17.319c0-1.988 1.326-3.076 4.165-3.076h15.662c2.84 0 4.166 1.088 4.166 3.076zm-19.828-25.316c-7.572 0-10.457 3.265-10.457 8.044v17.225c0 4.779 2.885 8.044 10.457 8.044h15.662c7.57 0 10.458-3.265 10.458-8.044v-17.225c0-4.779-2.888-8.044-10.458-8.044z" style="fill:#31860f;fill-opacity:1;fill-rule:nonzero;stroke:none"/><path d="M294.033 346.408v28.628l-2.318-2.65h-6.624l6.482 7.335h8.755v-33.313z" style="fill:#31a101;fill-opacity:1;fill-rule:nonzero;stroke:none"/><path d="M336.19 371.724c0 1.987-1.326 3.076-4.166 3.076h-15.662c-2.838 0-4.164-1.089-4.164-3.076v-17.319c0-1.988 1.326-3.076 4.164-3.076h15.662c2.84 0 4.166 1.088 4.166 3.076zm-19.828-25.316c-7.571 0-10.456 3.265-10.456 8.044v17.225c0 4.779 2.885 8.044 10.456 8.044h15.662c7.572 0 10.458-3.265 10.458-8.044v-17.225c0-4.779-2.886-8.044-10.458-8.044z" style="fill:#225e06;fill-opacity:1;fill-rule:nonzero;stroke:none"/><path d="M378.346 371.724c0 1.987-1.324 3.076-4.162 3.076H358.52c-2.838 0-4.165-1.089-4.165-3.076v-17.319c0-1.988 1.327-3.076 4.165-3.076h15.664c2.838 0 4.162 1.088 4.162 3.076zm-19.826-25.316c-7.572 0-10.458 3.265-10.458 8.044v17.225c0 4.779 2.886 8.044 10.458 8.044h15.664c7.571 0 10.457-3.265 10.457-8.044v-17.225c0-4.779-2.886-8.044-10.457-8.044zm40.641 0v28.628l-2.318-2.65h-6.624l6.482 7.335h8.754v-33.313z" style="fill:#31860f;fill-opacity:1;fill-rule:nonzero;stroke:none"/><path d="M441.318 371.724c0 1.987-1.324 3.076-4.162 3.076h-15.664c-2.838 0-4.164-1.089-4.164-3.076v-17.319c0-1.988 1.326-3.076 4.164-3.076h15.664c2.838 0 4.162 1.088 4.162 3.076zm-19.826-25.316c-7.571 0-10.459 3.265-10.459 8.044v17.225c0 4.779 2.888 8.044 10.459 8.044h15.664c7.572 0 10.456-3.265 10.456-8.044v-17.225c0-4.779-2.884-8.044-10.456-8.044z" style="fill:#31a101;fill-opacity:1;fill-rule:nonzero;stroke:none"/><path d="M22.596 329.787c0 1.987-1.325 3.075-4.164 3.075H2.769c-2.84 0-4.165-1.088-4.165-3.075v-17.319c0-1.988 1.325-3.076 4.165-3.076h15.663c2.839 0 4.164 1.088 4.164 3.076zM2.769 304.471c-7.572 0-10.458 3.264-10.458 8.044v17.225c0 4.779 2.886 8.044 10.458 8.044h15.663c7.571 0 10.457-3.265 10.457-8.044v-17.225c0-4.78-2.886-8.044-10.457-8.044z" style="fill:#31860f;fill-opacity:1;fill-rule:nonzero;stroke:none"/><path d="M42.072 304.471v28.628l-2.318-2.65h-6.625l6.484 7.335h8.754v-33.313z" style="fill:#225e06;fill-opacity:1;fill-rule:nonzero;stroke:none"/><path d="M82.892 329.787c0 1.987-1.326 3.075-4.165 3.075H63.064c-2.839 0-4.164-1.088-4.164-3.075v-17.319c0-1.988 1.325-3.076 4.164-3.076h15.663c2.839 0 4.165 1.088 4.165 3.076zm-19.828-25.316c-7.571 0-10.457 3.264-10.457 8.044v17.225c0 4.779 2.886 8.044 10.457 8.044h15.663c7.571 0 10.458-3.265 10.458-8.044v-17.225c0-4.78-2.887-8.044-10.458-8.044zm39.304 0v28.628l-2.318-2.65h-6.625l6.483 7.335h8.754v-33.313z" style="fill:#31860f;fill-opacity:1;fill-rule:nonzero;stroke:none"/><path d="M121.846 304.471v28.628l-2.319-2.65h-6.625l6.484 7.335h8.754v-33.313z" style="fill:#225e06;fill-opacity:1;fill-rule:nonzero;stroke:none"/><path d="M162.665 329.787c0 1.987-1.325 3.075-4.165 3.075h-15.663c-2.839 0-4.164-1.088-4.164-3.075v-17.319c0-1.988 1.325-3.076 4.164-3.076H158.5c2.84 0 4.165 1.088 4.165 3.076zm-19.828-25.316c-7.571 0-10.457 3.264-10.457 8.044v17.225c0 4.779 2.886 8.044 10.457 8.044H158.5c7.572 0 10.458-3.265 10.458-8.044v-17.225c0-4.78-2.886-8.044-10.458-8.044z" style="fill:#31a101;fill-opacity:1;fill-rule:nonzero;stroke:none"/><path d="M203.482 329.787c0 1.987-1.325 3.075-4.164 3.075h-15.663c-2.839 0-4.164-1.088-4.164-3.075v-17.319c0-1.988 1.325-3.076 4.164-3.076h15.663c2.839 0 4.164 1.088 4.164 3.076zm-19.827-25.316c-7.571 0-10.457 3.264-10.457 8.044v17.225c0 4.779 2.886 8.044 10.457 8.044h15.663c7.572 0 10.459-3.265 10.459-8.044v-17.225c0-4.78-2.887-8.044-10.459-8.044z" style="fill:#225e06;fill-opacity:1;fill-rule:nonzero;stroke:none"/><path d="M222.959 304.471v28.628l-2.318-2.65h-6.624l6.483 7.335h8.753v-33.313zm19.477 0v28.628l-2.319-2.65h-6.623l6.482 7.335h8.754v-33.313z" style="fill:#31860f;fill-opacity:1;fill-rule:nonzero;stroke:none"/><path d="M261.912 304.471v28.628l-2.318-2.65h-6.623l6.482 7.335h8.754v-33.313zm19.477 0v28.628l-2.319-2.65h-6.623l6.483 7.335h8.754v-33.313z" style="fill:#225e06;fill-opacity:1;fill-rule:nonzero;stroke:none"/><path d="M322.208 329.787c0 1.987-1.324 3.075-4.162 3.075h-15.664c-2.838 0-4.164-1.088-4.164-3.075v-17.319c0-1.988 1.326-3.076 4.164-3.076h15.664c2.838 0 4.162 1.088 4.162 3.076zm-19.826-25.316c-7.571 0-10.458 3.264-10.458 8.044v17.225c0 4.779 2.887 8.044 10.458 8.044h15.664c7.571 0 10.456-3.265 10.456-8.044v-17.225c0-4.78-2.885-8.044-10.456-8.044z" style="fill:#31a101;fill-opacity:1;fill-rule:nonzero;stroke:none"/><path d="M341.685 304.471v28.628l-2.319-2.65h-6.624l6.483 7.335h8.754v-33.313z" style="fill:#31860f;fill-opacity:1;fill-rule:nonzero;stroke:none"/><path d="M382.504 329.787c0 1.987-1.326 3.075-4.166 3.075h-15.662c-2.839 0-4.164-1.088-4.164-3.075v-17.319c0-1.988 1.325-3.076 4.164-3.076h15.662c2.84 0 4.166 1.088 4.166 3.076zm-19.828-25.316c-7.572 0-10.457 3.264-10.457 8.044v17.225c0 4.779 2.885 8.044 10.457 8.044h15.662c7.57 0 10.458-3.265 10.458-8.044v-17.225c0-4.78-2.888-8.044-10.458-8.044z" style="fill:#31a101;fill-opacity:1;fill-rule:nonzero;stroke:none"/><path d="M401.979 304.471v28.628l-2.319-2.65h-6.624l6.483 7.335h8.753v-33.313zm40.818 25.316c0 1.987-1.325 3.075-4.166 3.075h-15.662c-2.838 0-4.164-1.088-4.164-3.075v-17.319c0-1.988 1.326-3.076 4.164-3.076h15.662c2.841 0 4.166 1.088 4.166 3.076zm-19.828-25.316c-7.572 0-10.456 3.264-10.456 8.044v17.225c0 4.779 2.884 8.044 10.456 8.044h15.662c7.571 0 10.459-3.265 10.459-8.044v-17.225c0-4.78-2.888-8.044-10.459-8.044zM.368 287.85c0 1.987-1.325 3.075-4.164 3.075h-15.663c-2.839 0-4.164-1.088-4.164-3.075v-17.32c0-1.987 1.325-3.075 4.164-3.075h15.663c2.839 0 4.164 1.088 4.164 3.075zm-19.827-25.316c-7.571 0-10.458 3.265-10.458 8.044v17.225c0 4.78 2.887 8.044 10.458 8.044h15.663c7.571 0 10.458-3.264 10.458-8.044v-17.225c0-4.779-2.887-8.044-10.458-8.044z" style="fill:#31860f;fill-opacity:1;fill-rule:nonzero;stroke:none"/><path d="M18.668 262.534v28.629l-2.318-2.65H9.725l6.484 7.334h8.754v-33.313z" style="fill:#31a101;fill-opacity:1;fill-rule:nonzero;stroke:none"/><path d="M37.261 262.534v28.629l-2.32-2.65h-6.624l6.482 7.334h8.755v-33.313z" style="fill:#225e06;fill-opacity:1;fill-rule:nonzero;stroke:none"/><path d="M79.794 287.85c0 1.987-1.324 3.075-4.164 3.075H59.967c-2.839 0-4.164-1.088-4.164-3.075v-17.32c0-1.987 1.325-3.075 4.164-3.075H75.63c2.84 0 4.164 1.088 4.164 3.075zm-19.827-25.316c-7.571 0-10.457 3.265-10.457 8.044v17.225c0 4.78 2.886 8.044 10.457 8.044H75.63c7.572 0 10.458-3.264 10.458-8.044v-17.225c0-4.779-2.886-8.044-10.458-8.044z" style="fill:#31860f;fill-opacity:1;fill-rule:nonzero;stroke:none"/><path d="M122.039 287.85c0 1.987-1.325 3.075-4.164 3.075h-15.663c-2.839 0-4.164-1.088-4.164-3.075v-17.32c0-1.987 1.325-3.075 4.164-3.075h15.663c2.839 0 4.164 1.088 4.164 3.075zm-19.827-25.316c-7.571 0-10.458 3.265-10.458 8.044v17.225c0 4.78 2.887 8.044 10.458 8.044h15.663c7.571 0 10.457-3.264 10.457-8.044v-17.225c0-4.779-2.886-8.044-10.457-8.044z" style="fill:#225e06;fill-opacity:1;fill-rule:nonzero;stroke:none"/><path d="M140.338 262.534v28.629l-2.318-2.65h-6.625l6.483 7.334h8.754v-33.313zm18.593 0v28.629l-2.32-2.65h-6.625l6.483 7.334h8.755v-33.313zm42.533 25.316c0 1.987-1.325 3.075-4.164 3.075h-15.663c-2.839 0-4.164-1.088-4.164-3.075v-17.32c0-1.987 1.325-3.075 4.164-3.075H197.3c2.839 0 4.164 1.088 4.164 3.075zm-19.827-25.316c-7.571 0-10.457 3.265-10.457 8.044v17.225c0 4.78 2.886 8.044 10.457 8.044H197.3c7.571 0 10.458-3.264 10.458-8.044v-17.225c0-4.779-2.887-8.044-10.458-8.044z" style="fill:#31860f;fill-opacity:1;fill-rule:nonzero;stroke:none"/><path d="M219.765 262.534v28.629l-2.319-2.65h-6.624l6.483 7.334h8.754v-33.313z" style="fill:#225e06;fill-opacity:1;fill-rule:nonzero;stroke:none"/><path d="M262.298 287.85c0 1.987-1.323 3.075-4.162 3.075h-15.664c-2.838 0-4.164-1.088-4.164-3.075v-17.32c0-1.987 1.326-3.075 4.164-3.075h15.664c2.839 0 4.162 1.088 4.162 3.075zm-19.826-25.316c-7.571 0-10.458 3.265-10.458 8.044v17.225c0 4.78 2.887 8.044 10.458 8.044h15.664c7.571 0 10.457-3.264 10.457-8.044v-17.225c0-4.779-2.886-8.044-10.457-8.044zm38.129 0v28.629l-2.319-2.65h-6.624l6.483 7.334h8.754v-33.313z" style="fill:#31860f;fill-opacity:1;fill-rule:nonzero;stroke:none"/><path d="M299.19 262.534v28.629l-2.318-2.65h-6.623l6.482 7.334h8.754v-33.313z" style="fill:#225e06;fill-opacity:1;fill-rule:nonzero;stroke:none"/><path d="M341.725 287.85c0 1.987-1.325 3.075-4.162 3.075h-15.665c-2.837 0-4.164-1.088-4.164-3.075v-17.32c0-1.987 1.327-3.075 4.164-3.075h15.665c2.837 0 4.162 1.088 4.162 3.075zm-19.827-25.316c-7.571 0-10.459 3.265-10.459 8.044v17.225c0 4.78 2.888 8.044 10.459 8.044h15.665c7.571 0 10.456-3.264 10.456-8.044v-17.225c0-4.779-2.885-8.044-10.456-8.044zm38.126 0v28.629l-2.318-2.65h-6.624l6.483 7.334h8.754v-33.313z" style="fill:#31860f;fill-opacity:1;fill-rule:nonzero;stroke:none"/><path d="M378.617 262.534v28.629l-2.318-2.65h-6.624l6.482 7.334h8.754v-33.313zm42.533 25.316c0 1.987-1.323 3.075-4.162 3.075h-15.664c-2.838 0-4.164-1.088-4.164-3.075v-17.32c0-1.987 1.326-3.075 4.164-3.075h15.664c2.839 0 4.162 1.088 4.162 3.075zm-19.826-25.316c-7.57 0-10.458 3.265-10.458 8.044v17.225c0 4.78 2.888 8.044 10.458 8.044h15.664c7.572 0 10.457-3.264 10.457-8.044v-17.225c0-4.779-2.885-8.044-10.457-8.044z" style="fill:#31a101;fill-opacity:1;fill-rule:nonzero;stroke:none"/><path d="M439.451 262.534v28.629l-2.318-2.65h-6.624l6.482 7.334h8.754v-33.313z" style="fill:#31860f;fill-opacity:1;fill-rule:nonzero;stroke:none"/><path d="m.125 219.384-.079 28.629-2.312-2.657-6.624-.017 6.463 7.351 8.754.024.092-33.313z" style="fill:#225e06;fill-opacity:1;fill-rule:nonzero;stroke:none"/><path d="M42.589 244.817c-.005 1.988-1.333 3.073-4.172 3.064l-15.663-.043c-2.839-.008-4.161-1.1-4.156-3.087l.048-17.319c.005-1.987 1.333-3.072 4.172-3.064l15.663.043c2.84.008 4.162 1.1 4.156 3.087zm-19.757-25.371c-7.571-.02-10.466 3.238-10.479 8.016l-.048 17.225c-.013 4.78 2.864 8.052 10.435 8.072l15.663.044c7.572.02 10.467-3.236 10.48-8.016l.047-17.224c.013-4.779-2.864-8.052-10.435-8.074z" style="fill:#31860f;fill-opacity:1;fill-rule:nonzero;stroke:none"/><path d="M84.833 244.934c-.005 1.987-1.333 3.072-4.172 3.064l-15.663-.044c-2.839-.008-4.161-1.1-4.156-3.087l.048-17.319c.006-1.986 1.334-3.071 4.173-3.064l15.663.043c2.839.008 4.161 1.1 4.155 3.087zm-19.757-25.371c-7.571-.021-10.466 3.237-10.479 8.015l-.048 17.225c-.013 4.78 2.865 8.052 10.435 8.072l15.663.044c7.572.02 10.467-3.235 10.48-8.016l.047-17.224c.014-4.779-2.864-8.052-10.435-8.073z" style="fill:#31a101;fill-opacity:1;fill-rule:nonzero;stroke:none"/><path d="m103.204 219.668-.079 28.629-2.312-2.656-6.624-.019 6.463 7.352 8.754.024.092-33.312zm18.59.051-.079 28.629-2.311-2.657-6.625-.017 6.464 7.351 8.754.024.091-33.313z" style="fill:#225e06;fill-opacity:1;fill-rule:nonzero;stroke:none"/><path d="M164.259 245.152c-.006 1.987-1.334 3.072-4.173 3.064l-15.663-.043c-2.839-.008-4.161-1.1-4.155-3.087l.047-17.319c.006-1.987 1.333-3.073 4.173-3.064l15.663.043c2.839.008 4.161 1.1 4.155 3.087zm-19.758-25.371c-7.571-.02-10.466 3.238-10.479 8.016l-.047 17.224c-.014 4.781 2.863 8.053 10.435 8.073l15.662.043c7.572.021 10.467-3.235 10.48-8.015l.048-17.225c.013-4.778-2.865-8.051-10.436-8.073z" style="fill:#31a101;fill-opacity:1;fill-rule:nonzero;stroke:none"/><path d="m182.629 219.887-.078 28.629-2.313-2.657-6.624-.018 6.462 7.351 8.755.025.092-33.314z" style="fill:#225e06;fill-opacity:1;fill-rule:nonzero;stroke:none"/><path d="m201.22 219.938-.079 28.628-2.311-2.656-6.625-.018 6.463 7.352 8.754.024.092-33.313z" style="fill:#31a101;fill-opacity:1;fill-rule:nonzero;stroke:none"/><path d="M243.684 245.371c-.006 1.986-1.332 3.071-4.171 3.064l-15.664-.043c-2.838-.008-4.161-1.1-4.156-3.087l.048-17.32c.006-1.987 1.335-3.072 4.173-3.064l15.664.044c2.838.008 4.159 1.099 4.153 3.087zM223.927 220c-7.571-.021-10.467 3.237-10.48 8.015l-.048 17.225c-.013 4.781 2.866 8.052 10.436 8.073l15.665.043c7.571.021 10.465-3.235 10.478-8.015l.047-17.226c.014-4.777-2.863-8.051-10.434-8.072z" style="fill:#225e06;fill-opacity:1;fill-rule:nonzero;stroke:none"/><path d="m262.054 220.105-.079 28.629-2.311-2.656-6.624-.018 6.462 7.351 8.754.024.092-33.313z" style="fill:#31a101;fill-opacity:1;fill-rule:nonzero;stroke:none"/><path d="M304.52 245.538c-.006 1.987-1.333 3.072-4.171 3.065l-15.664-.043c-2.838-.008-4.162-1.101-4.156-3.088l.048-17.32c.005-1.986 1.334-3.071 4.172-3.063l15.664.043c2.839.008 4.159 1.099 4.154 3.087zm-19.757-25.37c-7.572-.022-10.467 3.236-10.481 8.015l-.047 17.224c-.013 4.781 2.865 8.052 10.436 8.073l15.664.043c7.571.021 10.466-3.234 10.478-8.014l.048-17.226c.013-4.778-2.863-8.052-10.434-8.072z" style="fill:#31860f;fill-opacity:1;fill-rule:nonzero;stroke:none"/><path d="m322.889 220.272-.078 28.629-2.312-2.656-6.624-.018 6.463 7.352 8.754.024.092-33.313z" style="fill:#225e06;fill-opacity:1;fill-rule:nonzero;stroke:none"/><path d="m341.479 220.323-.079 28.629-2.31-2.656-6.624-.018 6.462 7.351 8.754.025.091-33.313zm42.466 25.434c-.006 1.987-1.334 3.071-4.174 3.063l-15.663-.043c-2.837-.007-4.161-1.099-4.155-3.087l.048-17.319c.005-1.986 1.334-3.071 4.173-3.063l15.661.043c2.841.007 4.163 1.099 4.158 3.087zm-19.758-25.371c-7.571-.021-10.465 3.237-10.479 8.015l-.047 17.225c-.014 4.78 2.863 8.052 10.435 8.073l15.661.043c7.571.021 10.468-3.235 10.48-8.015l.048-17.225c.013-4.778-2.865-8.052-10.436-8.073zm38.128.105-.079 28.629-2.311-2.656-6.623-.019 6.462 7.352 8.754.024.091-33.313z" style="fill:#31860f;fill-opacity:1;fill-rule:nonzero;stroke:none"/><path d="M444.781 245.924c-.006 1.987-1.335 3.072-4.175 3.064l-15.662-.043c-2.838-.007-4.161-1.1-4.155-3.087l.047-17.319c.006-1.987 1.335-3.072 4.173-3.064l15.662.043c2.84.007 4.163 1.1 4.158 3.086zm-19.759-25.37c-7.571-.022-10.464 3.236-10.478 8.014l-.047 17.226c-.014 4.78 2.862 8.052 10.434 8.072l15.662.043c7.571.021 10.468-3.235 10.48-8.014l.048-17.226c.013-4.778-2.865-8.052-10.436-8.072z" style="fill:#225e06;fill-opacity:1;fill-rule:nonzero;stroke:none"/><path d="M.368 202.658c0 1.988-1.325 3.075-4.164 3.075h-15.663c-2.839 0-4.164-1.087-4.164-3.075v-17.319c0-1.987 1.325-3.075 4.164-3.075h15.663c2.839 0 4.164 1.088 4.164 3.075zm-19.827-25.316c-7.571 0-10.458 3.263-10.458 8.044v17.225c0 4.778 2.887 8.044 10.458 8.044h15.663c7.571 0 10.458-3.266 10.458-8.044v-17.225c0-4.781-2.887-8.044-10.458-8.044z" style="fill:#31860f;fill-opacity:1;fill-rule:nonzero;stroke:none"/><path d="M18.668 177.342v28.627l-2.318-2.65H9.725l6.484 7.336h8.754v-33.313zm18.593 0v28.627l-2.32-2.65h-6.624l6.482 7.336h8.755v-33.313z" style="fill:#31a101;fill-opacity:1;fill-rule:nonzero;stroke:none"/><path d="M79.794 202.658c0 1.988-1.324 3.075-4.164 3.075H59.967c-2.839 0-4.164-1.087-4.164-3.075v-17.319c0-1.987 1.325-3.075 4.164-3.075H75.63c2.84 0 4.164 1.088 4.164 3.075zm-19.827-25.316c-7.571 0-10.457 3.263-10.457 8.044v17.225c0 4.778 2.886 8.044 10.457 8.044H75.63c7.572 0 10.458-3.266 10.458-8.044v-17.225c0-4.781-2.886-8.044-10.458-8.044z" style="fill:#225e06;fill-opacity:1;fill-rule:nonzero;stroke:none"/><path d="M122.039 202.658c0 1.988-1.325 3.075-4.164 3.075h-15.663c-2.839 0-4.164-1.087-4.164-3.075v-17.319c0-1.987 1.325-3.075 4.164-3.075h15.663c2.839 0 4.164 1.088 4.164 3.075zm-19.827-25.316c-7.571 0-10.458 3.263-10.458 8.044v17.225c0 4.778 2.887 8.044 10.458 8.044h15.663c7.571 0 10.457-3.266 10.457-8.044v-17.225c0-4.781-2.886-8.044-10.457-8.044z" style="fill:#31860f;fill-opacity:1;fill-rule:nonzero;stroke:none"/><path d="M140.338 177.342v28.627l-2.318-2.65h-6.625l6.483 7.336h8.754v-33.313z" style="fill:#31a101;fill-opacity:1;fill-rule:nonzero;stroke:none"/><path d="M158.931 177.342v28.627l-2.32-2.65h-6.625l6.483 7.336h8.755v-33.313z" style="fill:#225e06;fill-opacity:1;fill-rule:nonzero;stroke:none"/><path d="M201.464 202.658c0 1.988-1.325 3.075-4.164 3.075h-15.663c-2.839 0-4.164-1.087-4.164-3.075v-17.319c0-1.987 1.325-3.075 4.164-3.075H197.3c2.839 0 4.164 1.088 4.164 3.075zm-19.827-25.316c-7.571 0-10.457 3.263-10.457 8.044v17.225c0 4.778 2.886 8.044 10.457 8.044H197.3c7.571 0 10.458-3.266 10.458-8.044v-17.225c0-4.781-2.887-8.044-10.458-8.044z" style="fill:#31a101;fill-opacity:1;fill-rule:nonzero;stroke:none"/><path d="M219.765 177.342v28.627l-2.319-2.65h-6.624l6.483 7.336h8.754v-33.313zm42.533 25.316c0 1.988-1.323 3.075-4.162 3.075h-15.664c-2.838 0-4.164-1.087-4.164-3.075v-17.319c0-1.987 1.326-3.075 4.164-3.075h15.664c2.839 0 4.162 1.088 4.162 3.075zm-19.826-25.316c-7.571 0-10.458 3.263-10.458 8.044v17.225c0 4.778 2.887 8.044 10.458 8.044h15.664c7.571 0 10.457-3.266 10.457-8.044v-17.225c0-4.781-2.886-8.044-10.457-8.044z" style="fill:#225e06;fill-opacity:1;fill-rule:nonzero;stroke:none"/><path d="M280.601 177.342v28.627l-2.319-2.65h-6.624l6.483 7.336h8.754v-33.313z" style="fill:#31a101;fill-opacity:1;fill-rule:nonzero;stroke:none"/><path d="M323.134 202.658c0 1.988-1.324 3.075-4.162 3.075h-15.664c-2.838 0-4.164-1.087-4.164-3.075v-17.319c0-1.987 1.326-3.075 4.164-3.075h15.664c2.838 0 4.162 1.088 4.162 3.075zm-19.826-25.316c-7.572 0-10.458 3.263-10.458 8.044v17.225c0 4.778 2.886 8.044 10.458 8.044h15.664c7.571 0 10.457-3.266 10.457-8.044v-17.225c0-4.781-2.886-8.044-10.457-8.044zm38.127 0v28.627l-2.319-2.65h-6.624l6.483 7.336h8.754v-33.313z" style="fill:#31860f;fill-opacity:1;fill-rule:nonzero;stroke:none"/><path d="M360.024 177.342v28.627l-2.318-2.65h-6.624l6.483 7.336h8.754v-33.313z" style="fill:#225e06;fill-opacity:1;fill-rule:nonzero;stroke:none"/><path d="M402.561 202.658c0 1.988-1.325 3.075-4.163 3.075h-15.664c-2.838 0-4.164-1.087-4.164-3.075v-17.319c0-1.987 1.326-3.075 4.164-3.075h15.664c2.838 0 4.163 1.088 4.163 3.075zm-19.827-25.316c-7.571 0-10.459 3.263-10.459 8.044v17.225c0 4.778 2.888 8.044 10.459 8.044h15.664c7.572 0 10.456-3.266 10.456-8.044v-17.225c0-4.781-2.884-8.044-10.456-8.044zm62.072 25.316c0 1.988-1.327 3.075-4.166 3.075h-15.662c-2.838 0-4.165-1.087-4.165-3.075v-17.319c0-1.987 1.327-3.075 4.165-3.075h15.662c2.839 0 4.166 1.088 4.166 3.075zm-19.828-25.316c-7.572 0-10.457 3.263-10.457 8.044v17.225c0 4.778 2.885 8.044 10.457 8.044h15.662c7.571 0 10.458-3.266 10.458-8.044v-17.225c0-4.781-2.887-8.044-10.458-8.044z" style="fill:#31860f;fill-opacity:1;fill-rule:nonzero;stroke:none"/><path d="M.078 135.405v28.627l-2.319-2.648h-6.624l6.483 7.334h8.754v-33.313z" style="fill:#225e06;fill-opacity:1;fill-rule:nonzero;stroke:none"/><path d="M42.613 160.721c0 1.987-1.325 3.076-4.164 3.076H22.786c-2.84 0-4.165-1.089-4.165-3.076v-17.32c0-1.986 1.325-3.075 4.165-3.075h15.663c2.839 0 4.164 1.089 4.164 3.075zm-19.827-25.316c-7.572 0-10.458 3.266-10.458 8.043v17.226c0 4.778 2.886 8.044 10.458 8.044h15.663c7.571 0 10.457-3.266 10.457-8.044v-17.226c0-4.777-2.886-8.043-10.457-8.043z" style="fill:#31a101;fill-opacity:1;fill-rule:nonzero;stroke:none"/><path d="M60.914 135.405v28.627l-2.32-2.648H51.97l6.482 7.334h8.755v-33.313z" style="fill:#225e06;fill-opacity:1;fill-rule:nonzero;stroke:none"/><path d="M79.504 135.405v28.627l-2.319-2.648H70.56l6.482 7.334h8.755v-33.313z" style="fill:#31a101;fill-opacity:1;fill-rule:nonzero;stroke:none"/><path d="M122.039 160.721c0 1.987-1.325 3.076-4.164 3.076h-15.663c-2.839 0-4.164-1.089-4.164-3.076v-17.32c0-1.986 1.325-3.075 4.164-3.075h15.663c2.839 0 4.164 1.089 4.164 3.075zm-19.827-25.316c-7.571 0-10.458 3.266-10.458 8.043v17.226c0 4.778 2.887 8.044 10.458 8.044h15.663c7.571 0 10.457-3.266 10.457-8.044v-17.226c0-4.777-2.886-8.043-10.457-8.043z" style="fill:#225e06;fill-opacity:1;fill-rule:nonzero;stroke:none"/><path d="M164.282 160.721c0 1.987-1.324 3.076-4.164 3.076h-15.663c-2.839 0-4.164-1.089-4.164-3.076v-17.32c0-1.986 1.325-3.075 4.164-3.075h15.663c2.84 0 4.164 1.089 4.164 3.075zm-19.827-25.316c-7.571 0-10.457 3.266-10.457 8.043v17.226c0 4.778 2.886 8.044 10.457 8.044h15.663c7.571 0 10.458-3.266 10.458-8.044v-17.226c0-4.777-2.887-8.043-10.458-8.043z" style="fill:#31860f;fill-opacity:1;fill-rule:nonzero;stroke:none"/><path d="M182.583 135.405v28.627l-2.319-2.648h-6.625l6.483 7.334h8.755v-33.313z" style="fill:#225e06;fill-opacity:1;fill-rule:nonzero;stroke:none"/><path d="M201.174 135.405v28.627l-2.319-2.648h-6.624l6.483 7.334h8.754v-33.313z" style="fill:#31a101;fill-opacity:1;fill-rule:nonzero;stroke:none"/><path d="M243.708 160.721c0 1.987-1.324 3.076-4.163 3.076h-15.664c-2.838 0-4.164-1.089-4.164-3.076v-17.32c0-1.986 1.326-3.075 4.164-3.075h15.664c2.839 0 4.163 1.089 4.163 3.075zm-19.827-25.316c-7.57 0-10.458 3.266-10.458 8.043v17.226c0 4.778 2.888 8.044 10.458 8.044h15.664c7.572 0 10.457-3.266 10.457-8.044v-17.226c0-4.777-2.885-8.043-10.457-8.043z" style="fill:#31860f;fill-opacity:1;fill-rule:nonzero;stroke:none"/><path d="M262.008 135.405v28.627l-2.319-2.648h-6.624l6.483 7.334h8.754v-33.313z" style="fill:#31a101;fill-opacity:1;fill-rule:nonzero;stroke:none"/><path d="M304.544 160.721c0 1.987-1.324 3.076-4.162 3.076h-15.664c-2.839 0-4.165-1.089-4.165-3.076v-17.32c0-1.986 1.326-3.075 4.165-3.075h15.664c2.838 0 4.162 1.089 4.162 3.075zm-19.826-25.316c-7.572 0-10.459 3.266-10.459 8.043v17.226c0 4.778 2.887 8.044 10.459 8.044h15.664c7.57 0 10.456-3.266 10.456-8.044v-17.226c0-4.777-2.886-8.043-10.456-8.043z" style="fill:#31860f;fill-opacity:1;fill-rule:nonzero;stroke:none"/><path d="M322.844 135.405v28.627l-2.319-2.648h-6.624l6.483 7.334h8.754v-33.313z" style="fill:#225e06;fill-opacity:1;fill-rule:nonzero;stroke:none"/><path d="M341.435 135.405v28.627l-2.319-2.648h-6.624l6.483 7.334h8.754v-33.313zm42.535 25.316c0 1.987-1.326 3.076-4.166 3.076h-15.662c-2.838 0-4.164-1.089-4.164-3.076v-17.32c0-1.986 1.326-3.075 4.164-3.075h15.662c2.84 0 4.166 1.089 4.166 3.075zm-19.828-25.316c-7.572 0-10.456 3.266-10.456 8.043v17.226c0 4.778 2.884 8.044 10.456 8.044h15.662c7.571 0 10.458-3.266 10.458-8.044v-17.226c0-4.777-2.887-8.043-10.458-8.043zm38.128 0v28.627l-2.319-2.648h-6.623l6.483 7.334h8.753v-33.313z" style="fill:#31860f;fill-opacity:1;fill-rule:nonzero;stroke:none"/><path d="M420.86 135.405v28.627l-2.318-2.648h-6.624l6.483 7.334h8.754v-33.313zm18.591 0v28.627l-2.318-2.648h-6.624l6.482 7.334h8.754v-33.313z" style="fill:#225e06;fill-opacity:1;fill-rule:nonzero;stroke:none"/><path d="M.698 118.784c0 1.987-1.325 3.075-4.164 3.075h-15.663c-2.839 0-4.164-1.088-4.164-3.075v-17.319c0-1.987 1.325-3.076 4.164-3.076h15.663c2.839 0 4.164 1.089 4.164 3.076zm-19.827-25.316c-7.571 0-10.458 3.265-10.458 8.044v17.224c0 4.781 2.887 8.044 10.458 8.044h15.663c7.571 0 10.457-3.263 10.457-8.044v-17.224c0-4.779-2.886-8.044-10.457-8.044z" style="fill:#31860f;fill-opacity:1;fill-rule:nonzero;stroke:none"/><path d="M20.211 93.468v28.629l-2.318-2.65h-6.625l6.483 7.333h8.754V93.468Z" style="fill:#225e06;fill-opacity:1;fill-rule:nonzero;stroke:none"/><path d="M39.727 93.468v28.629l-2.32-2.65h-6.624l6.482 7.333h8.755V93.468Z" style="fill:#31a101;fill-opacity:1;fill-rule:nonzero;stroke:none"/><path d="M80.582 118.784c0 1.987-1.325 3.075-4.165 3.075H60.754c-2.838 0-4.164-1.088-4.164-3.075v-17.319c0-1.987 1.326-3.076 4.164-3.076h15.663c2.84 0 4.165 1.089 4.165 3.076zM60.754 93.468c-7.571 0-10.457 3.265-10.457 8.044v17.224c0 4.781 2.886 8.044 10.457 8.044h15.663c7.572 0 10.458-3.263 10.458-8.044v-17.224c0-4.779-2.886-8.044-10.458-8.044z" style="fill:#225e06;fill-opacity:1;fill-rule:nonzero;stroke:none"/><path d="M100.095 93.468v28.629l-2.319-2.65h-6.624l6.483 7.333h8.754V93.468Z" style="fill:#31860f;fill-opacity:1;fill-rule:nonzero;stroke:none"/><path d="M119.609 93.468v28.629l-2.318-2.65h-6.624l6.483 7.333h8.754V93.468Z" style="fill:#31a101;fill-opacity:1;fill-rule:nonzero;stroke:none"/><path d="M160.465 118.784c0 1.987-1.325 3.075-4.164 3.075h-15.663c-2.839 0-4.164-1.088-4.164-3.075v-17.319c0-1.987 1.325-3.076 4.164-3.076h15.663c2.839 0 4.164 1.089 4.164 3.076zm-19.827-25.316c-7.571 0-10.457 3.265-10.457 8.044v17.224c0 4.781 2.886 8.044 10.457 8.044h15.663c7.571 0 10.457-3.263 10.457-8.044v-17.224c0-4.779-2.886-8.044-10.457-8.044z" style="fill:#31860f;fill-opacity:1;fill-rule:nonzero;stroke:none"/><path d="M201.32 118.784c0 1.987-1.325 3.075-4.164 3.075h-15.663c-2.839 0-4.164-1.088-4.164-3.075v-17.319c0-1.987 1.325-3.076 4.164-3.076h15.663c2.839 0 4.164 1.089 4.164 3.076zm-19.827-25.316c-7.571 0-10.457 3.265-10.457 8.044v17.224c0 4.781 2.886 8.044 10.457 8.044h15.663c7.571 0 10.458-3.263 10.458-8.044v-17.224c0-4.779-2.887-8.044-10.458-8.044zm39.34 0v28.629l-2.318-2.65h-6.623l6.482 7.333h8.754V93.468Z" style="fill:#31a101;fill-opacity:1;fill-rule:nonzero;stroke:none"/><path d="M261.689 118.784c0 1.987-1.324 3.075-4.162 3.075h-15.664c-2.838 0-4.164-1.088-4.164-3.075v-17.319c0-1.987 1.326-3.076 4.164-3.076h15.664c2.838 0 4.162 1.089 4.162 3.076zm-19.826-25.316c-7.571 0-10.458 3.265-10.458 8.044v17.224c0 4.781 2.887 8.044 10.458 8.044h15.664c7.572 0 10.456-3.263 10.456-8.044v-17.224c0-4.779-2.884-8.044-10.456-8.044z" style="fill:#225e06;fill-opacity:1;fill-rule:nonzero;stroke:none"/><path d="M281.203 93.468v28.629l-2.318-2.65h-6.624l6.482 7.333h8.754V93.468Zm19.514 0v28.629l-2.32-2.65h-6.623l6.483 7.333h8.754V93.468Z" style="fill:#31a101;fill-opacity:1;fill-rule:nonzero;stroke:none"/><path d="M341.572 118.784c0 1.987-1.324 3.075-4.162 3.075h-15.664c-2.838 0-4.164-1.088-4.164-3.075v-17.319c0-1.987 1.326-3.076 4.164-3.076h15.664c2.838 0 4.162 1.089 4.162 3.076zm-19.826-25.316c-7.571 0-10.458 3.265-10.458 8.044v17.224c0 4.781 2.887 8.044 10.458 8.044h15.664c7.571 0 10.456-3.263 10.456-8.044v-17.224c0-4.779-2.885-8.044-10.456-8.044zm39.34 0v28.629l-2.318-2.65h-6.624l6.482 7.333h8.754V93.468Z" style="fill:#225e06;fill-opacity:1;fill-rule:nonzero;stroke:none"/><path d="M401.941 118.784c0 1.987-1.324 3.075-4.162 3.075h-15.664c-2.838 0-4.164-1.088-4.164-3.075v-17.319c0-1.987 1.326-3.076 4.164-3.076h15.664c2.838 0 4.162 1.089 4.162 3.076zm-19.826-25.316c-7.571 0-10.458 3.265-10.458 8.044v17.224c0 4.781 2.887 8.044 10.458 8.044h15.664c7.572 0 10.456-3.263 10.456-8.044v-17.224c0-4.779-2.884-8.044-10.456-8.044z" style="fill:#31860f;fill-opacity:1;fill-rule:nonzero;stroke:none"/><path d="M442.797 118.784c0 1.987-1.325 3.075-4.166 3.075h-15.662c-2.838 0-4.164-1.088-4.164-3.075v-17.319c0-1.987 1.326-3.076 4.164-3.076h15.662c2.841 0 4.166 1.089 4.166 3.076zm-19.828-25.316c-7.572 0-10.456 3.265-10.456 8.044v17.224c0 4.781 2.884 8.044 10.456 8.044h15.662c7.571 0 10.459-3.263 10.459-8.044v-17.224c0-4.779-2.888-8.044-10.459-8.044z" style="fill:#31a101;fill-opacity:1;fill-rule:nonzero;stroke:none"/><path d="M.078 51.53v28.627l-2.319-2.649h-6.624l6.483 7.336h8.754V51.53Z" style="fill:#225e06;fill-opacity:1;fill-rule:nonzero;stroke:none"/><path d="M42.613 76.847c0 1.987-1.325 3.075-4.164 3.075H22.786c-2.84 0-4.165-1.088-4.165-3.075v-17.32c0-1.987 1.325-3.075 4.165-3.075h15.663c2.839 0 4.164 1.088 4.164 3.075zM22.786 51.53c-7.572 0-10.458 3.264-10.458 8.044V76.8c0 4.778 2.886 8.044 10.458 8.044h15.663c7.571 0 10.457-3.266 10.457-8.044V59.574c0-4.78-2.886-8.044-10.457-8.044z" style="fill:#31a101;fill-opacity:1;fill-rule:nonzero;stroke:none"/><path d="M60.914 51.53v28.627l-2.32-2.649H51.97l6.482 7.336h8.755V51.53Zm42.533 25.317c0 1.987-1.324 3.075-4.164 3.075H83.62c-2.839 0-4.164-1.088-4.164-3.075v-17.32c0-1.987 1.325-3.075 4.164-3.075h15.663c2.84 0 4.164 1.088 4.164 3.075zM83.62 51.53c-7.571 0-10.457 3.264-10.457 8.044V76.8c0 4.778 2.886 8.044 10.457 8.044h15.663c7.571 0 10.458-3.266 10.458-8.044V59.574c0-4.78-2.887-8.044-10.458-8.044zm38.128 0v28.627l-2.319-2.649h-6.624l6.483 7.336h8.754V51.53Z" style="fill:#225e06;fill-opacity:1;fill-rule:nonzero;stroke:none"/><path d="M140.338 51.53v28.627l-2.318-2.649h-6.625l6.483 7.336h8.754V51.53Z" style="fill:#31a101;fill-opacity:1;fill-rule:nonzero;stroke:none"/><path d="M158.931 51.53v28.627l-2.32-2.649h-6.625l6.483 7.336h8.755V51.53Z" style="fill:#31860f;fill-opacity:1;fill-rule:nonzero;stroke:none"/><path d="M201.464 76.847c0 1.987-1.325 3.075-4.164 3.075h-15.663c-2.839 0-4.164-1.088-4.164-3.075v-17.32c0-1.987 1.325-3.075 4.164-3.075H197.3c2.839 0 4.164 1.088 4.164 3.075zM181.637 51.53c-7.571 0-10.457 3.264-10.457 8.044V76.8c0 4.778 2.886 8.044 10.457 8.044H197.3c7.571 0 10.458-3.266 10.458-8.044V59.574c0-4.78-2.887-8.044-10.458-8.044z" style="fill:#225e06;fill-opacity:1;fill-rule:nonzero;stroke:none"/><path d="M243.708 76.847c0 1.987-1.324 3.075-4.163 3.075h-15.664c-2.838 0-4.164-1.088-4.164-3.075v-17.32c0-1.987 1.326-3.075 4.164-3.075h15.664c2.839 0 4.163 1.088 4.163 3.075zM223.881 51.53c-7.57 0-10.458 3.264-10.458 8.044V76.8c0 4.778 2.888 8.044 10.458 8.044h15.664c7.572 0 10.457-3.266 10.457-8.044V59.574c0-4.78-2.885-8.044-10.457-8.044z" style="fill:#31860f;fill-opacity:1;fill-rule:nonzero;stroke:none"/><path d="M262.008 51.53v28.627l-2.319-2.649h-6.624l6.483 7.336h8.754V51.53Z" style="fill:#225e06;fill-opacity:1;fill-rule:nonzero;stroke:none"/><path d="M304.544 76.847c0 1.987-1.324 3.075-4.162 3.075h-15.664c-2.839 0-4.165-1.088-4.165-3.075v-17.32c0-1.987 1.326-3.075 4.165-3.075h15.664c2.838 0 4.162 1.088 4.162 3.075zM284.718 51.53c-7.572 0-10.459 3.264-10.459 8.044V76.8c0 4.778 2.887 8.044 10.459 8.044h15.664c7.57 0 10.456-3.266 10.456-8.044V59.574c0-4.78-2.886-8.044-10.456-8.044z" style="fill:#31a101;fill-opacity:1;fill-rule:nonzero;stroke:none"/><path d="M322.844 51.53v28.627l-2.319-2.649h-6.624l6.483 7.336h8.754V51.53Z" style="fill:#31860f;fill-opacity:1;fill-rule:nonzero;stroke:none"/><path d="M341.435 51.53v28.627l-2.319-2.649h-6.624l6.483 7.336h8.754V51.53Z" style="fill:#31a101;fill-opacity:1;fill-rule:nonzero;stroke:none"/><path d="M383.97 76.847c0 1.987-1.326 3.075-4.166 3.075h-15.662c-2.838 0-4.164-1.088-4.164-3.075v-17.32c0-1.987 1.326-3.075 4.164-3.075h15.662c2.84 0 4.166 1.088 4.166 3.075zM364.142 51.53c-7.572 0-10.456 3.264-10.456 8.044V76.8c0 4.778 2.884 8.044 10.456 8.044h15.662c7.571 0 10.458-3.266 10.458-8.044V59.574c0-4.78-2.887-8.044-10.458-8.044z" style="fill:#225e06;fill-opacity:1;fill-rule:nonzero;stroke:none"/><path d="M402.27 51.53v28.627l-2.319-2.649h-6.623l6.483 7.336h8.753V51.53Z" style="fill:#31860f;fill-opacity:1;fill-rule:nonzero;stroke:none"/><path d="M444.806 76.847c0 1.987-1.327 3.075-4.166 3.075h-15.662c-2.838 0-4.165-1.088-4.165-3.075v-17.32c0-1.987 1.327-3.075 4.165-3.075h15.662c2.839 0 4.166 1.088 4.166 3.075zM424.978 51.53c-7.572 0-10.457 3.264-10.457 8.044V76.8c0 4.778 2.885 8.044 10.457 8.044h15.662c7.571 0 10.458-3.266 10.458-8.044V59.574c0-4.78-2.887-8.044-10.458-8.044z" style="fill:#225e06;fill-opacity:1;fill-rule:nonzero;stroke:none"/></g><g clip-path="url(#f)"><path d="M457.835 14.156v28.628l-2.32-2.649h-6.624l6.482 7.335h8.755V14.156Z" style="fill:#31a101;fill-opacity:1;fill-rule:nonzero;stroke:none"/><path d="M.368 39.473c0 1.987-1.325 3.075-4.164 3.075h-15.663c-2.839 0-4.164-1.088-4.164-3.075v-17.32c0-1.987 1.325-3.076 4.164-3.076h15.663c2.839 0 4.164 1.089 4.164 3.076zm-19.827-25.317c-7.571 0-10.458 3.265-10.458 8.044v17.226c0 4.779 2.887 8.044 10.458 8.044h15.663c7.571 0 10.458-3.265 10.458-8.044V22.2c0-4.779-2.887-8.044-10.458-8.044z" style="fill:#31860f;fill-opacity:1;fill-rule:nonzero;stroke:none"/><path d="M18.668 14.156v28.628l-2.318-2.649H9.725l6.484 7.335h8.754V14.156Zm18.593 0v28.628l-2.32-2.649h-6.624l6.482 7.335h8.755V14.156Z" style="fill:#225e06;fill-opacity:1;fill-rule:nonzero;stroke:none"/><path d="M79.794 39.473c0 1.987-1.324 3.075-4.164 3.075H59.967c-2.839 0-4.164-1.088-4.164-3.075v-17.32c0-1.987 1.325-3.076 4.164-3.076H75.63c2.84 0 4.164 1.089 4.164 3.076zM59.967 14.156c-7.571 0-10.457 3.265-10.457 8.044v17.226c0 4.779 2.886 8.044 10.457 8.044H75.63c7.572 0 10.458-3.265 10.458-8.044V22.2c0-4.779-2.886-8.044-10.458-8.044zm38.128 0v28.628l-2.319-2.649h-6.625l6.484 7.335h8.754V14.156Z" style="fill:#31a101;fill-opacity:1;fill-rule:nonzero;stroke:none"/><path d="M140.629 39.473c0 1.987-1.324 3.075-4.164 3.075h-15.663c-2.839 0-4.164-1.088-4.164-3.075v-17.32c0-1.987 1.325-3.076 4.164-3.076h15.663c2.84 0 4.164 1.089 4.164 3.076zm-19.827-25.317c-7.571 0-10.457 3.265-10.457 8.044v17.226c0 4.779 2.886 8.044 10.457 8.044h15.663c7.572 0 10.458-3.265 10.458-8.044V22.2c0-4.779-2.886-8.044-10.458-8.044z" style="fill:#225e06;fill-opacity:1;fill-rule:nonzero;stroke:none"/><path d="M158.931 14.156v28.628l-2.32-2.649h-6.625l6.483 7.335h8.755V14.156Z" style="fill:#31a101;fill-opacity:1;fill-rule:nonzero;stroke:none"/><path d="M177.521 14.156v28.628l-2.319-2.649h-6.625l6.483 7.335h8.754V14.156Z" style="fill:#225e06;fill-opacity:1;fill-rule:nonzero;stroke:none"/><path d="M196.111 14.156v28.628l-2.318-2.649h-6.625l6.484 7.335h8.754V14.156Z" style="fill:#31a101;fill-opacity:1;fill-rule:nonzero;stroke:none"/><path d="M214.702 14.156v28.628l-2.318-2.649h-6.624l6.482 7.335h8.754V14.156Zm42.535 25.317c0 1.987-1.325 3.075-4.166 3.075H237.41c-2.839 0-4.164-1.088-4.164-3.075v-17.32c0-1.987 1.325-3.076 4.164-3.076h15.661c2.841 0 4.166 1.089 4.166 3.076zM237.41 14.156c-7.572 0-10.457 3.265-10.457 8.044v17.226c0 4.779 2.885 8.044 10.457 8.044h15.661c7.572 0 10.459-3.265 10.459-8.044V22.2c0-4.779-2.887-8.044-10.459-8.044z" style="fill:#31860f;fill-opacity:1;fill-rule:nonzero;stroke:none"/><path d="M275.538 14.156v28.628l-2.318-2.649h-6.624l6.482 7.335h8.754V14.156Z" style="fill:#225e06;fill-opacity:1;fill-rule:nonzero;stroke:none"/><path d="M318.073 39.473c0 1.987-1.325 3.075-4.166 3.075h-15.662c-2.838 0-4.164-1.088-4.164-3.075v-17.32c0-1.987 1.326-3.076 4.164-3.076h15.662c2.841 0 4.166 1.089 4.166 3.076zm-19.828-25.317c-7.571 0-10.456 3.265-10.456 8.044v17.226c0 4.779 2.885 8.044 10.456 8.044h15.662c7.572 0 10.459-3.265 10.459-8.044V22.2c0-4.779-2.887-8.044-10.459-8.044z" style="fill:#31a101;fill-opacity:1;fill-rule:nonzero;stroke:none"/><path d="M336.372 14.156v28.628l-2.318-2.649h-6.624l6.482 7.335h8.754V14.156Z" style="fill:#225e06;fill-opacity:1;fill-rule:nonzero;stroke:none"/><path d="M378.905 39.473c0 1.987-1.324 3.075-4.162 3.075h-15.664c-2.838 0-4.164-1.088-4.164-3.075v-17.32c0-1.987 1.326-3.076 4.164-3.076h15.664c2.838 0 4.162 1.089 4.162 3.076zm-19.826-25.317c-7.571 0-10.458 3.265-10.458 8.044v17.226c0 4.779 2.887 8.044 10.458 8.044h15.664c7.571 0 10.456-3.265 10.456-8.044V22.2c0-4.779-2.885-8.044-10.456-8.044z" style="fill:#31860f;fill-opacity:1;fill-rule:nonzero;stroke:none"/><path d="M397.208 14.156v28.628l-2.318-2.649h-6.624l6.482 7.335h8.754V14.156Z" style="fill:#225e06;fill-opacity:1;fill-rule:nonzero;stroke:none"/><path d="M439.741 39.473c0 1.987-1.324 3.075-4.162 3.075h-15.664c-2.838 0-4.164-1.088-4.164-3.075v-17.32c0-1.987 1.326-3.076 4.164-3.076h15.664c2.838 0 4.162 1.089 4.162 3.076zm-19.826-25.317c-7.571 0-10.458 3.265-10.458 8.044v17.226c0 4.779 2.887 8.044 10.458 8.044h15.664c7.571 0 10.456-3.265 10.456-8.044V22.2c0-4.779-2.885-8.044-10.456-8.044z" style="fill:#31860f;fill-opacity:1;fill-rule:nonzero;stroke:none"/><path d="M23.573-2.465c0 1.987-1.325 3.076-4.164 3.076H3.746C.907.611-.418-.478-.418-2.465v-17.319c0-1.987 1.325-3.075 4.164-3.075h15.663c2.839 0 4.164 1.088 4.164 3.075zM3.746-27.78c-7.572 0-10.458 3.264-10.458 8.043v17.225c0 4.78 2.886 8.044 10.458 8.044h15.663c7.571 0 10.457-3.264 10.457-8.044v-17.225c0-4.779-2.886-8.043-10.457-8.043z" style="fill:#225e06;fill-opacity:1;fill-rule:nonzero;stroke:none"/><path d="M44.026-27.78V.848l-2.318-2.651h-6.625l6.484 7.335h8.754V-27.78Z" style="fill:#31a101;fill-opacity:1;fill-rule:nonzero;stroke:none"/><path d="M85.822-2.465c0 1.987-1.324 3.076-4.164 3.076H65.995c-2.839 0-4.164-1.089-4.164-3.076v-17.319c0-1.987 1.325-3.075 4.164-3.075h15.663c2.84 0 4.164 1.088 4.164 3.075zM65.995-27.78c-7.571 0-10.457 3.264-10.457 8.043v17.225c0 4.78 2.886 8.044 10.457 8.044h15.663c7.571 0 10.458-3.264 10.458-8.044v-17.225c0-4.779-2.887-8.043-10.458-8.043z" style="fill:#31860f;fill-opacity:1;fill-rule:nonzero;stroke:none"/><path d="M106.276-27.78V.848l-2.318-2.651h-6.625l6.483 7.335h8.754V-27.78Z" style="fill:#225e06;fill-opacity:1;fill-rule:nonzero;stroke:none"/><path d="M148.072-2.465c0 1.987-1.325 3.076-4.164 3.076h-15.663c-2.839 0-4.164-1.089-4.164-3.076v-17.319c0-1.987 1.325-3.075 4.164-3.075h15.663c2.839 0 4.164 1.088 4.164 3.075zM128.245-27.78c-7.571 0-10.457 3.264-10.457 8.043v17.225c0 4.78 2.886 8.044 10.457 8.044h15.663c7.571 0 10.457-3.264 10.457-8.044v-17.225c0-4.779-2.886-8.043-10.457-8.043z" style="fill:#31a101;fill-opacity:1;fill-rule:nonzero;stroke:none"/><path d="M168.527-27.78V.848l-2.319-2.651h-6.625l6.482 7.335h8.755V-27.78Z" style="fill:#225e06;fill-opacity:1;fill-rule:nonzero;stroke:none"/><path d="M188.981-27.78V.848l-2.319-2.651h-6.625l6.483 7.335h8.754V-27.78Z" style="fill:#31860f;fill-opacity:1;fill-rule:nonzero;stroke:none"/><path d="M230.775-2.465c0 1.987-1.324 3.076-4.162 3.076h-15.664c-2.838 0-4.164-1.089-4.164-3.076v-17.319c0-1.987 1.326-3.075 4.164-3.075h15.664c2.838 0 4.162 1.088 4.162 3.075zM210.949-27.78c-7.571 0-10.457 3.264-10.457 8.043v17.225c0 4.78 2.886 8.044 10.457 8.044h15.664c7.571 0 10.457-3.264 10.457-8.044v-17.225c0-4.779-2.886-8.043-10.457-8.043z" style="fill:#225e06;fill-opacity:1;fill-rule:nonzero;stroke:none"/><path d="M272.571-2.465c0 1.987-1.326 3.076-4.166 3.076h-15.662c-2.838 0-4.164-1.089-4.164-3.076v-17.319c0-1.987 1.326-3.075 4.164-3.075h15.662c2.84 0 4.166 1.088 4.166 3.075zM252.743-27.78c-7.571 0-10.456 3.264-10.456 8.043v17.225c0 4.78 2.885 8.044 10.456 8.044h15.662c7.572 0 10.458-3.264 10.458-8.044v-17.225c0-4.779-2.886-8.043-10.458-8.043zm61.622 25.315c0 1.987-1.326 3.076-4.166 3.076h-15.662c-2.838 0-4.164-1.089-4.164-3.076v-17.319c0-1.987 1.326-3.075 4.164-3.075h15.662c2.84 0 4.166 1.088 4.166 3.075zM294.537-27.78c-7.571 0-10.456 3.264-10.456 8.043v17.225c0 4.78 2.885 8.044 10.456 8.044h15.662c7.572 0 10.459-3.264 10.459-8.044v-17.225c0-4.779-2.887-8.043-10.459-8.043zm40.28 0V.848l-2.318-2.651h-6.624l6.482 7.335h8.754V-27.78Zm41.796 25.315c0 1.987-1.324 3.076-4.162 3.076h-15.664c-2.839 0-4.164-1.089-4.164-3.076v-17.319c0-1.987 1.325-3.075 4.164-3.075h15.664c2.838 0 4.162 1.088 4.162 3.075zM356.787-27.78c-7.571 0-10.458 3.264-10.458 8.043v17.225c0 4.78 2.887 8.044 10.458 8.044h15.664c7.571 0 10.456-3.264 10.456-8.044v-17.225c0-4.779-2.885-8.043-10.456-8.043z" style="fill:#31860f;fill-opacity:1;fill-rule:nonzero;stroke:none"/><path d="M397.066-27.78V.848l-2.318-2.651h-6.623l6.482 7.335h8.754V-27.78Z" style="fill:#31a101;fill-opacity:1;fill-rule:nonzero;stroke:none"/><path d="M417.521-27.78V.848l-2.319-2.651h-6.624l6.483 7.335h8.753V-27.78Zm22.461 0V.848l-2.318-2.651h-6.624l6.482 7.335h8.754V-27.78Z" style="fill:#225e06;fill-opacity:1;fill-rule:nonzero;stroke:none"/></g></g></g></svg>